<?xml version="1.0" encoding="UTF-8" standalone="no"?>
<svg xmlns="http://www.w3.org/2000/svg" preserveAspectRatio="xMinYMin meet">
    <g class="scaling-icon" style="fill-opacity: 1">
        <g stroke="none" stroke-width="1" fill="none" fill-rule="evenodd">
        <g>
        <path d="M14,1.25 L14,12.75 C14,13.44 13.44,14 12.75,14 L1.25,14 C0.56,14 0,13.44 0,12.75 L0,1.25 C0,0.56 0.56,0 1.25,0 L12.75,0 C13.44,0 14,0.56 14,1.25" class="bug-text-color" fill="#FFFFFF">
        </path>
        <path d="M14,1.25 L14,12.75 C14,13.44 13.44,14 12.75,14 L1.25,14 C0.56,14 0,13.44 0,12.75 L0,1.25 C0,0.56 0.56,0 1.25,0 L12.75,0 C13.44,0 14,0.56 14,1.25 Z M5,5 L6.85,5 L6.85,6.016 L6.893,6.016 C7.259,5.541 8.018,4.938 9.25,4.938 C11.125,4.938 12,5.808 12,8 L12,12 L10,12 L10,8.75 C10,7.313 9.672,6.875 8.632,6.875 C7.5,6.875 7,7.75 7,9 L7,12 L5,12 L5,5 Z M2,12 L4,12 L4,5 L2,5 L2,12 Z M4.335,3 C4.335,3.737 3.737,4.335 3,4.335 C2.263,4.335 1.665,3.737 1.665,3 C1.665,2.263 2.263,1.665 3,1.665 C3.737,1.665 4.335,2.263 4.335,3 Z" class="background" fill="#0073B2">
        </path>
        </g>
        <g transform="scale(0.4)">
        <rect fill="#FFFFFF" x="1" y="1" width="46" height="46" rx="4">
        </rect>
        <path d="M0,4.00989318 C0,1.79529033 1.79405245,0 4.00989318,0 L43.9901068,0 C46.2047097,0 48,1.79405245 48,4.00989318 L48,43.9901068 C48,46.2047097 46.2059475,48 43.9901068,48 L4.00989318,48 C1.79529033,48 0,46.2059475 0,43.9901068 L0,4.00989318 Z M19,18.3 L25.5,18.3 L25.5,21.566 C26.437,19.688 28.838,18 32.445,18 C39.359,18 41,21.738 41,28.597 L41,41.3 L34,41.3 L34,30.159 C34,26.253 33.063,24.05 30.68,24.05 C27.375,24.05 26,26.425 26,30.159 L26,41.3 L19,41.3 L19,18.3 Z M7,41 L14,41 L14,18 L7,18 L7,41 Z M15,10.5 C15,12.985 12.985,15 10.5,15 C8.015,15 6,12.985 6,10.5 C6,8.015 8.015,6 10.5,6 C12.985,6 15,8.015 15,10.5 Z" class="background" fill="#0077B5">
        </path>
        </g>
        </g>
    </g>
</svg>
